<?xml version="1.0" encoding="utf-8"?>
<!-- Generator: Adobe Illustrator 24.0.0, SVG Export Plug-In . SVG Version: 6.00 Build 0)  -->
<svg version="1.1" id="Capa_1" xmlns="http://www.w3.org/2000/svg" xmlns:xlink="http://www.w3.org/1999/xlink" x="0px" y="0px"
	 viewBox="0 0 566.93 566.93" style="enable-background:new 0 0 566.93 566.93;" xml:space="preserve">
<style type="text/css">
	.st0{fill:url(#SVGID_1_);}
	.st1{fill:url(#SVGID_2_);}
	.st2{opacity:0.8;fill:url(#SVGID_3_);}
	.st3{opacity:0.8;fill:url(#SVGID_4_);}
	.st4{opacity:0.8;fill:url(#SVGID_5_);}
	.st5{opacity:0.8;fill:url(#SVGID_6_);}
	.st6{opacity:0.8;fill:url(#SVGID_7_);}
	.st7{opacity:0.8;fill:url(#SVGID_8_);}
	.st8{fill:#CCE0F0;}
	.st9{opacity:0.8;fill:url(#SVGID_9_);}
	.st10{fill:#FFFFFF;}
	.st11{fill:url(#SVGID_10_);}
	.st12{fill:#809297;}
	.st13{fill:url(#XMLID_2_);}
	.st14{fill:#8B9FA3;}
	.st15{fill:url(#XMLID_3_);}
	.st16{fill:#92A7AD;}
	.st17{fill:url(#XMLID_4_);}
	.st18{opacity:0.1;fill:#FFFFFF;}
	.st19{fill:#FCC872;}
	.st20{fill:url(#SVGID_11_);}
	.st21{fill:url(#XMLID_5_);}
	.st22{fill:url(#SVGID_12_);}
	.st23{fill:url(#SVGID_13_);}
	.st24{fill:url(#SVGID_14_);}
	.st25{opacity:0.7;fill:url(#SVGID_15_);}
	.st26{opacity:0.7;fill:url(#SVGID_16_);}
	.st27{fill:url(#SVGID_17_);}
	.st28{opacity:0.8;fill:url(#SVGID_18_);}
	.st29{fill:url(#SVGID_19_);}
	.st30{fill:#F9B215;}
	.st31{fill:#F59E19;}
	.st32{fill:#FEC92A;}
	.st33{opacity:0.7;fill:url(#SVGID_20_);}
	.st34{opacity:0.7;fill:url(#SVGID_21_);}
	.st35{fill:url(#SVGID_22_);}
	.st36{opacity:0.8;fill:url(#SVGID_23_);}
	.st37{fill:url(#SVGID_24_);}
	.st38{fill:#D3302F;}
	.st39{opacity:0.8;fill:url(#SVGID_25_);}
	.st40{fill:#EA5351;}
	.st41{fill:none;stroke:#FFFFFF;stroke-width:1.0404;stroke-miterlimit:10;}
	.st42{opacity:0.7;fill:url(#SVGID_26_);}
	.st43{opacity:0.7;fill:url(#SVGID_27_);}
	.st44{fill:url(#SVGID_28_);}
	.st45{fill:#26284C;}
	.st46{fill:#1A1B37;}
	.st47{fill:#F5F5F5;}
	.st48{fill:#7C92BA;}
	.st49{fill:#6B7FA3;}
	.st50{fill:none;stroke:#FFFFFF;stroke-width:0.7521;stroke-miterlimit:10;}
	.st51{opacity:0.8;fill:url(#SVGID_29_);}
	.st52{opacity:0.8;fill:url(#SVGID_30_);}
	.st53{opacity:0.8;fill:url(#SVGID_31_);}
	.st54{fill:url(#SVGID_32_);}
	.st55{fill:url(#SVGID_33_);}
	.st56{opacity:0.7;fill:url(#SVGID_34_);}
	.st57{fill:url(#SVGID_35_);}
	.st58{fill:none;stroke:#FFFFFF;stroke-width:1.0404;stroke-linecap:round;stroke-linejoin:round;stroke-miterlimit:10;}
	.st59{fill:#FFEE5A;}
	.st60{fill:none;stroke:#FFFFFF;stroke-width:0.5202;stroke-linecap:round;stroke-linejoin:round;stroke-miterlimit:10;}
	.st61{fill:url(#SVGID_36_);}
</style>
<g>
	<linearGradient id="SVGID_1_" gradientUnits="userSpaceOnUse" x1="287.5" y1="514.7413" x2="287.5" y2="18.5261">
		<stop  offset="1.860120e-03" style="stop-color:#8B4192"/>
		<stop  offset="1" style="stop-color:#2F2142"/>
	</linearGradient>
	<path class="st0" d="M531.9,392.7c-0.71,4.54-1.54,9.04-2.49,13.53c-0.73,3.41-1.51,6.81-2.36,10.18
		c-4.68,18.6-11.35,37.17-20.55,53.61c-9.4,16.82-21.47,31.42-36.83,41.58c-8.26,5.48-17.12,9.44-26.33,12.41h-313.6
		c-30.33-18.15-56.95-50.08-51.16-87.48c5.03-32.54,9.76-65-0.6-95.08c-7.53-21.82-22.36-39.75-30.71-61.22
		c-20.67-53.25,5.32-101.47,43.87-131.05c1.4-1.07,2.81-2.12,4.23-3.14c0.33-0.24,0.68-0.48,1.02-0.72
		c1.57-1.11,3.13-2.26,4.65-3.43c3.32-2.55,6.52-5.23,9.66-8.05h0.01c2.36-2.12,4.67-4.28,6.95-6.52c0.54-0.51,1.09-1.04,1.61-1.59
		c3.14-3.11,6.23-6.32,9.27-9.59c1.6-1.72,3.19-3.46,4.77-5.21c12.33-13.64,24.23-27.92,37.27-40.36
		c12.42-11.85,25.88-22.03,41.73-28.37c9.91-3.96,20.09-6.73,30.37-8.3c40.65-6.3,82.95,5.64,115.96,33.5
		c1.61,1.36,3.23,2.77,4.83,4.22c17.06,15.37,32.76,34.98,39.69,57.61c8.74,28.49,21.63,55.98,45.13,72.92
		c19.39,13.96,37.75,23.23,53.19,43.52c5.57,7.31,10.37,15.02,14.46,23.05c3.33,6.56,6.2,13.31,8.61,20.23
		c3.21,9.22,5.63,18.72,7.32,28.42C536.21,341.93,535.86,367.64,531.9,392.7z"/>
	<linearGradient id="SVGID_2_" gradientUnits="userSpaceOnUse" x1="65.9093" y1="509.6974" x2="38.8649" y2="339.3174">
		<stop  offset="1.860120e-03" style="stop-color:#8B4192"/>
		<stop  offset="1" style="stop-color:#2F2142"/>
	</linearGradient>
	<path class="st1" d="M43.79,450.44c-0.49,9.45,0.03,19.38,4.33,27.57c3.61,6.87,12.06,12.14,17.9,7.5
		c4.44-3.53,4.75-10.77,3.27-16.57c-1.48-5.8-4.31-11.25-4.72-17.26c-0.63-9.46,9.52-33.7-5.73-34.8
		C45.1,415.89,44.27,441.1,43.79,450.44z"/>
	<g>
		<linearGradient id="SVGID_3_" gradientUnits="userSpaceOnUse" x1="157.365" y1="513.3353" x2="162.515" y2="442.6405">
			<stop  offset="0" style="stop-color:#FFFFFF;stop-opacity:0"/>
			<stop  offset="1" style="stop-color:#653089"/>
		</linearGradient>
		<ellipse class="st2" cx="159.51" cy="483.91" rx="29.58" ry="12.84"/>
		<linearGradient id="SVGID_4_" gradientUnits="userSpaceOnUse" x1="308.281" y1="515.0286" x2="313.4309" y2="444.3343">
			<stop  offset="0" style="stop-color:#FFFFFF;stop-opacity:0"/>
			<stop  offset="1" style="stop-color:#653089"/>
		</linearGradient>
		<ellipse class="st3" cx="310.42" cy="485.61" rx="29.58" ry="12.84"/>
		<linearGradient id="SVGID_5_" gradientUnits="userSpaceOnUse" x1="320.1968" y1="438.2102" x2="110.5589" y2="435.6536">
			<stop  offset="0" style="stop-color:#FFFFFF;stop-opacity:0"/>
			<stop  offset="1" style="stop-color:#653089"/>
		</linearGradient>
		<polygon class="st4" points="139.88,427.37 166.63,427.37 226.08,457.88 218.31,477.2 246.15,477.2 306.64,435.85 232.59,407.31 
			188.58,396.38 		"/>
		<linearGradient id="SVGID_6_" gradientUnits="userSpaceOnUse" x1="261.2603" y1="209.642" x2="143.026" y2="342.0998">
			<stop  offset="0" style="stop-color:#FFFFFF;stop-opacity:0"/>
			<stop  offset="1" style="stop-color:#653089"/>
		</linearGradient>
		<rect x="145.38" y="204.35" class="st5" width="146.6" height="105.98"/>
		<linearGradient id="SVGID_7_" gradientUnits="userSpaceOnUse" x1="606.6443" y1="417.0146" x2="365.8696" y2="417.0146">
			<stop  offset="0" style="stop-color:#FFFFFF;stop-opacity:0"/>
			<stop  offset="1" style="stop-color:#653089"/>
		</linearGradient>
		<path class="st6" d="M531.9,364.02v28.68c-0.71,4.54-1.54,9.04-2.49,13.53c-0.73,3.41-1.51,6.81-2.36,10.18
			c-4.68,18.6-11.35,37.17-20.55,53.61h-76.63V364.02H531.9z"/>
		<linearGradient id="SVGID_8_" gradientUnits="userSpaceOnUse" x1="571.4221" y1="337.4731" x2="314.8369" y2="337.4731">
			<stop  offset="0" style="stop-color:#FFFFFF;stop-opacity:0"/>
			<stop  offset="1" style="stop-color:#653089"/>
		</linearGradient>
		<path class="st7" d="M531.9,317.37v75.33c-0.71,4.54-1.54,9.04-2.49,13.53H315.62V268.72h200.35c3.33,6.56,6.2,13.31,8.61,20.23
			C527.8,298.17,530.21,307.67,531.9,317.37z"/>
		<g>
			<path class="st8" d="M363.59,372.78v-75.67H210.11v75.67l0,0c0,12.5,7.49,24.99,22.48,34.53c29.97,19.07,78.56,19.07,108.52,0
				C356.09,397.77,363.59,385.28,363.59,372.78z"/>
			<linearGradient id="SVGID_9_" gradientUnits="userSpaceOnUse" x1="275.4" y1="359.3601" x2="390.7727" y2="359.3601">
				<stop  offset="0" style="stop-color:#FFFFFF;stop-opacity:0"/>
				<stop  offset="1" style="stop-color:#653089"/>
			</linearGradient>
			<path class="st9" d="M363.59,372.78v-75.67H210.11v75.67l0,0c0,12.5,7.49,24.99,22.48,34.53c29.97,19.07,78.56,19.07,108.52,0
				C356.09,397.77,363.59,385.28,363.59,372.78z"/>
			<ellipse class="st10" cx="286.85" cy="297.11" rx="76.74" ry="48.83"/>
			<g>
				<linearGradient id="SVGID_10_" gradientUnits="userSpaceOnUse" x1="286.848" y1="209.1901" x2="286.848" y2="376.6168">
					<stop  offset="1.694780e-03" style="stop-color:#4BBBBA"/>
					<stop  offset="1" style="stop-color:#49BABA;stop-opacity:0"/>
				</linearGradient>
				<ellipse class="st11" cx="286.85" cy="287.63" rx="76.74" ry="48.83"/>
				<g>
					<path id="XMLID_914_" class="st12" d="M305.56,273.04c-0.27,8.82-9.11,15.65-19.76,15.25c-10.64-0.39-19.05-7.86-18.78-16.68
						c0.27-8.82,9.11-15.65,19.76-15.25C297.42,256.75,305.83,264.22,305.56,273.04z"/>
					<linearGradient id="XMLID_2_" gradientUnits="userSpaceOnUse" x1="267.0123" y1="272.3279" x2="305.5639" y2="272.3279">
						<stop  offset="3.946110e-03" style="stop-color:#FFFFFF;stop-opacity:0"/>
						<stop  offset="1" style="stop-color:#92A7AD"/>
					</linearGradient>
					<path id="XMLID_913_" class="st13" d="M305.56,273.04c-0.27,8.82-9.11,15.65-19.76,15.25c-10.64-0.39-19.05-7.86-18.78-16.68
						c0.27-8.82,9.11-15.65,19.76-15.25C297.42,256.75,305.83,264.22,305.56,273.04z"/>
					<path id="XMLID_912_" class="st14" d="M318.33,254.03c-0.33,10.75-14.67,18.94-32.04,18.3c-17.37-0.64-31.18-9.88-30.86-20.63
						s14.67-18.94,32.04-18.3C304.85,234.04,318.66,243.28,318.33,254.03z"/>
					<linearGradient id="XMLID_3_" gradientUnits="userSpaceOnUse" x1="276.0977" y1="252.8612" x2="312.5514" y2="252.8612">
						<stop  offset="3.946110e-03" style="stop-color:#FFFFFF;stop-opacity:0"/>
						<stop  offset="1" style="stop-color:#92A7AD"/>
					</linearGradient>
					<path id="XMLID_907_" class="st15" d="M318.33,254.03c-0.33,10.75-14.67,18.94-32.04,18.3c-17.37-0.64-31.18-9.88-30.86-20.63
						s14.67-18.94,32.04-18.3C304.85,234.04,318.66,243.28,318.33,254.03z"/>
					
						<ellipse id="XMLID_906_" transform="matrix(0.0411 -0.9992 0.9992 0.0411 34.8301 517.9293)" class="st16" cx="287.25" cy="240.82" rx="19.47" ry="31.47"/>
					<linearGradient id="XMLID_4_" gradientUnits="userSpaceOnUse" x1="270.3354" y1="240.8186" x2="314.199" y2="240.8186">
						<stop  offset="3.946110e-03" style="stop-color:#FFFFFF;stop-opacity:0"/>
						<stop  offset="1" style="stop-color:#92A7AD"/>
					</linearGradient>
					<path id="XMLID_905_" class="st17" d="M318.7,241.98c-0.33,10.75-14.67,18.94-32.04,18.3s-31.18-9.88-30.86-20.63
						c0.33-10.75,14.67-18.94,32.04-18.3C305.21,222,319.03,231.23,318.7,241.98z"/>
					<path id="XMLID_904_" class="st18" d="M260.54,245.25c-0.87,0.48-2.12-0.35-2.79-1.84c-0.68-1.49-0.52-3.09,0.35-3.56
						c0.87-0.48,2.12,0.35,2.79,1.84C261.56,243.17,261.41,244.77,260.54,245.25z"/>
					<path id="XMLID_897_" class="st18" d="M262.23,248.13c-0.57,0.32-1.24,0.13-1.49-0.42c-0.25-0.55,0.01-1.25,0.59-1.57
						c0.57-0.32,1.24-0.13,1.49,0.42C263.07,247.12,262.81,247.82,262.23,248.13z"/>
					<path id="XMLID_896_" class="st18" d="M260.64,258.21c-0.87,0.48-2.12-0.35-2.79-1.84c-0.68-1.49-0.52-3.09,0.35-3.56
						c0.87-0.48,2.12,0.35,2.79,1.84C261.66,256.14,261.51,257.73,260.64,258.21z"/>
					<path id="XMLID_895_" class="st18" d="M262.34,261.1c-0.57,0.32-1.24,0.13-1.49-0.42c-0.25-0.55,0.01-1.25,0.59-1.57
						c0.57-0.32,1.24-0.13,1.49,0.42C263.17,260.08,262.91,260.78,262.34,261.1z"/>
					<path id="XMLID_894_" class="st19" d="M344.09,159.56c0.2-34.95-25.29-58.18-56.91-58.4c-31.61-0.22-57.37,22.66-57.57,57.61
						c-0.2,34.24,15.68,39.41,23.78,57.03c2.53,5.51,1.61,10.4,1.61,10.4c-0.08,13.3,13.05,20.82,31.35,20.95
						c18.3,0.13,31.51-7.21,31.59-20.51c0,0-0.87-4.9,1.73-10.38C327.96,198.75,343.89,193.79,344.09,159.56z"/>
					<linearGradient id="SVGID_11_" gradientUnits="userSpaceOnUse" x1="272.5022" y1="152.6517" x2="325.5699" y2="215.4484">
						<stop  offset="3.946110e-03" style="stop-color:#FFFFFF;stop-opacity:0"/>
						<stop  offset="1" style="stop-color:#FCC872"/>
					</linearGradient>
					<path class="st20" d="M344.09,159.56c-0.01,2.14-0.08,4.16-0.21,6.08c-0.09,1.46-0.24,2.88-0.4,4.23
						c-0.83,6.95-2.46,12.4-4.53,17c-0.05,0.09-0.08,0.18-0.12,0.27c-5.25,11.41-13.27,17.46-18.57,27.9
						c-0.21,0.39-0.41,0.79-0.6,1.2c-2.6,5.47-1.73,10.37-1.73,10.37c0,0.52-0.02,1.04-0.08,1.55c-0.01,0.23-0.04,0.47-0.07,0.69
						c0,0.12-0.02,0.23-0.05,0.35c-0.02,0.22-0.06,0.44-0.11,0.65c-0.04,0.22-0.07,0.44-0.13,0.66c-0.06,0.3-0.14,0.61-0.22,0.9
						c0,0.03-0.01,0.05-0.02,0.08c-0.24,0.83-0.53,1.63-0.9,2.4c-0.01,0.05-0.04,0.09-0.06,0.14c-3.12,6.57-10.49,10.8-20.3,12.38
						c-2.99,0.5-6.23,0.73-9.64,0.7c-18.3-0.13-31.43-7.65-31.35-20.95c0,0,0.93-4.89-1.61-10.4c-8.1-17.6-23.98-22.79-23.78-57.02
						c0.2-34.95,25.96-57.83,57.57-57.61C318.79,101.38,344.29,124.61,344.09,159.56z"/>
					
						<linearGradient id="XMLID_5_" gradientUnits="userSpaceOnUse" x1="351.6097" y1="170.4762" x2="351.6097" y2="202.027" gradientTransform="matrix(0.9996 -0.0273 0.0273 0.9996 -70.4067 -17.5877)">
						<stop  offset="3.946110e-03" style="stop-color:#FFFFFF;stop-opacity:0"/>
						<stop  offset="1" style="stop-color:#FCC872"/>
					</linearGradient>
					<path id="XMLID_828_" class="st21" d="M304.96,189.8c-1-6.64-7.77-15.42-12.73-6.78c-3.43,5.98-3.07,14.35-3.07,21.34v0.43
						c-0.57,0.05-1.13,0.08-1.69,0.1c-0.17,0-0.32,0.03-0.45,0.08c-0.13-0.05-0.28-0.08-0.45-0.1c-0.55-0.02-1.11-0.05-1.67-0.11
						v-0.4c0.09-6.04,0.1-12.23-1.56-17.99c-2.6-9.09-10.23-8.69-13.24-0.14c-2.87,8.14-0.19,14.41,4.87,18.13
						c1.99,1.46,4.36,2.53,6.91,3.16c0,0.16-0.01,0.32-0.01,0.46c-0.03,4.5-0.04,9.01-0.07,13.51c-0.03,4.01-0.04,8.02-0.07,12.02
						c-0.01,1.81-0.01,3.61-0.03,5.4c-0.01,2.68-0.03,5.34-0.04,8c0.97,0.08,1.98,0.14,2.98,0.18c0.01-2.76,0.03-5.5,0.04-8.26
						c0.01-1.83,0.03-3.64,0.04-5.47c0.01-4.01,0.04-8.03,0.07-12.04c0.01-4.42,0.04-8.86,0.07-13.29c0.55,0.06,1.12,0.11,1.69,0.13
						c0.16,0,0.31-0.02,0.45-0.06c0.13,0.05,0.28,0.08,0.44,0.06c0.57,0,1.13-0.05,1.7-0.1c-0.03,4.44-0.06,8.9-0.07,13.34
						c-0.03,4.02-0.06,8.03-0.07,12.05c-0.01,1.8-0.03,3.57-0.03,5.37c-0.01,0.42-0.01,0.85-0.01,1.27
						c-0.01,2.32-0.03,4.63-0.04,6.97v0.02c0.01,0,0.01,0,0.03,0c0.01,0,0.01,0,0.03,0c0.03,0,0.04,0,0.07-0.02
						c0.01,0.02,0.03,0,0.04,0h0.2c0.33-0.02,0.65-0.03,0.97-0.05c0.29-0.02,0.57-0.03,0.84-0.05c0.28-0.02,0.54-0.05,0.8-0.06
						c0.01-2.66,0.03-5.34,0.04-8c0-0.79,0.01-1.57,0.01-2.36c0-0.93,0.01-1.88,0.01-2.81c0.03-4.02,0.04-8.05,0.07-12.07
						c0.01-4.54,0.04-9.09,0.07-13.63v-0.43C300.06,205.91,306.52,200.13,304.96,189.8z M272,192.72
						c-0.03-3.64,3.35-14.54,7.48-8.13c3.19,4.95,2.75,13.02,2.5,19.69C276.64,203.04,272.06,199.71,272,192.72z M292.09,204.36
						c-0.17-6.68-0.52-14.75,2.72-19.65c4.22-6.36,7.46,4.58,7.39,8.22C302.05,199.92,297.43,203.19,292.09,204.36z"/>
					
						<linearGradient id="SVGID_12_" gradientUnits="userSpaceOnUse" x1="371.6641" y1="194.4081" x2="325.7174" y2="117.2177" gradientTransform="matrix(0.9996 -0.0273 0.0273 0.9996 -70.4067 -17.5877)">
						<stop  offset="3.946110e-03" style="stop-color:#FFFFFF;stop-opacity:0"/>
						<stop  offset="1" style="stop-color:#FFFFFF"/>
					</linearGradient>
					<path class="st22" d="M314.4,150.9c-15.41,10.43-40.8,11.2-56.7,1.71c-15.9-9.49-16.3-25.65-0.89-36.08
						c15.41-10.43,40.8-11.2,56.7-1.71C329.41,124.31,329.81,140.46,314.4,150.9z"/>
					<linearGradient id="SVGID_13_" gradientUnits="userSpaceOnUse" x1="256.726" y1="191.8788" x2="207.0152" y2="167.805">
						<stop  offset="3.946110e-03" style="stop-color:#FFFFFF;stop-opacity:0"/>
						<stop  offset="1" style="stop-color:#FFFFFF"/>
					</linearGradient>
					<path class="st23" d="M237.54,177.1c2.68,8.55,7.67,16.39,12.96,22.99c5.53,6.9,12.17,13.75,13.31,22.87
						c0.16,1.27,0.22,2.6,0.78,3.73c0.56,1.12,1.84,1.95,2.9,1.41c0.54-0.28,0.91-0.84,1.23-1.4c2.26-4,3.05-8.98,2.16-13.59
						c-1.43-7.43-6.64-12.81-10.99-18.3c-4.23-5.33-7.83-12.18-9.19-19.16c-0.85-4.39-1.11-8.9-1.97-13.29
						c-0.41-2.1-0.98-4.21-2.13-5.94c-1.15-1.73-2.98-3.03-4.92-2.96c-2.07,0.07-3.9,1.69-4.89,3.7c-0.98,2.01-1.24,4.35-1.28,6.63
						C235.44,168.35,236.2,172.82,237.54,177.1z"/>
					<linearGradient id="SVGID_14_" gradientUnits="userSpaceOnUse" x1="278.0295" y1="245.5635" x2="320.5279" y2="222.6798">
						<stop  offset="3.946110e-03" style="stop-color:#FFFFFF;stop-opacity:0"/>
						<stop  offset="1" style="stop-color:#FCC872"/>
					</linearGradient>
					<path class="st24" d="M344.09,159.56c0,2.12-0.07,4.14-0.21,6.08c-0.09,1.46-0.24,2.88-0.4,4.23c-0.84,6.68-2.47,12.24-4.53,17
						c-0.05,0.09-0.08,0.18-0.12,0.27c-5.25,11.41-13.27,17.46-18.57,27.9c-0.21,0.39-0.41,0.79-0.6,1.2
						c-2.6,5.47-1.73,10.37-1.73,10.37c0,0.52-0.02,1.04-0.08,1.55c-0.01,0.23-0.04,0.47-0.07,0.69c0,0.12-0.02,0.23-0.05,0.35
						c-0.02,0.22-0.06,0.44-0.11,0.65c-0.04,0.22-0.07,0.44-0.13,0.66c-0.06,0.3-0.14,0.61-0.22,0.9c0,0.03-0.01,0.05-0.02,0.08
						c-0.24,0.83-0.53,1.63-0.9,2.4c-0.01,0.05-0.04,0.09-0.06,0.14c1.63,2.46,2.51,5.15,2.42,7.94c-0.07,2.1-0.67,4.1-1.73,5.97
						c0.93,1.93,1.42,3.97,1.35,6.07c-0.19,6.42-5.38,11.92-13.23,15.18c0.33,1.24,0.5,2.51,0.46,3.83
						c-0.27,8.82-9.12,15.65-19.76,15.26c-0.6-0.03-1.19-0.07-1.79-0.14c2.31-3.06,4.92-5.99,6.24-8.89
						c4.6-10.06,5.18-21.79,5.72-32.84c0.01-0.21,0.02-0.42,0.04-0.63c0.46-9.32,0.92-18.62,1.38-27.92
						c0.05-0.93,0.11-1.88,0.43-2.72c0.99-2.54,3.92-3.12,6.37-3.75C330.93,204.48,341.8,182.62,344.09,159.56z"/>
					<path class="st19" d="M341.71,92.56c0,3.11-2.29,5.63-5.11,5.63s-5.11-2.52-5.11-5.63c0-3.11,2.29-5.63,5.11-5.63
						S341.71,89.44,341.71,92.56z"/>
					<path class="st19" d="M341.71,248.29c0,3.11-2.29,5.63-5.11,5.63s-5.11-2.52-5.11-5.63c0-3.11,2.29-5.63,5.11-5.63
						S341.71,245.18,341.71,248.29z"/>
					<ellipse class="st19" cx="243.97" cy="223.93" rx="5.11" ry="5.63"/>
					<ellipse class="st19" cx="347.31" cy="75.91" rx="3.23" ry="3.56"/>
					<ellipse class="st19" cx="341.71" cy="216.43" rx="3.23" ry="3.56"/>
					<ellipse class="st19" cx="252.31" cy="73.83" rx="3.23" ry="3.56"/>
					<ellipse class="st19" cx="350.54" cy="260.32" rx="3.23" ry="3.56"/>
					<ellipse class="st19" cx="235.52" cy="278.55" rx="3.23" ry="3.56"/>
				</g>
				<g>
					<linearGradient id="SVGID_15_" gradientUnits="userSpaceOnUse" x1="162.35" y1="205.1435" x2="298.4038" y2="205.1435">
						<stop  offset="1.694780e-03" style="stop-color:#4BBBBA"/>
						<stop  offset="1" style="stop-color:#49BABA;stop-opacity:0"/>
					</linearGradient>
					<path class="st25" d="M363.59,287.63V73.83c0,12.5-7.49,24.99-22.48,34.53c-29.97,19.07-78.56,19.07-108.52,0
						c-14.98-9.53-22.48-22.03-22.48-34.53v213.81l0,0c0,12.5,7.49,24.99,22.48,34.53c29.97,19.07,78.56,19.07,108.52,0
						C356.09,312.62,363.59,300.13,363.59,287.63z"/>
					<linearGradient id="SVGID_16_" gradientUnits="userSpaceOnUse" x1="394.983" y1="205.1435" x2="299.483" y2="205.1435">
						<stop  offset="1.694780e-03" style="stop-color:#4BBBBA"/>
						<stop  offset="1" style="stop-color:#49BABA;stop-opacity:0"/>
					</linearGradient>
					<path class="st26" d="M363.59,287.63V73.83c0,12.5-7.49,24.99-22.48,34.53c-29.97,19.07-78.56,19.07-108.52,0
						c-14.98-9.53-22.48-22.03-22.48-34.53v213.81l0,0c0,12.5,7.49,24.99,22.48,34.53c29.97,19.07,78.56,19.07,108.52,0
						C356.09,312.62,363.59,300.13,363.59,287.63z"/>
					<linearGradient id="SVGID_17_" gradientUnits="userSpaceOnUse" x1="286.848" y1="-4.6162" x2="286.848" y2="162.8105">
						<stop  offset="1.694780e-03" style="stop-color:#4BBBBA"/>
						<stop  offset="1" style="stop-color:#49BABA;stop-opacity:0"/>
					</linearGradient>
					<ellipse class="st27" cx="286.85" cy="73.83" rx="76.74" ry="48.83"/>
				</g>
			</g>
			<path class="st10" d="M221.6,210.32L221.6,210.32c-3.24-2.06-5.23-5.87-5.23-9.98v-77.75c0-1.71,1.68-2.78,3.02-1.92l0,0
				c3.32,2.11,5.37,6.02,5.37,10.24v77.41C224.76,210.1,223,211.21,221.6,210.32z"/>
			<path class="st10" d="M221.6,245.3L221.6,245.3c-3.24-2.06-5.23-5.87-5.23-9.98v-11.04c0-1.71,1.68-2.78,3.02-1.92l0,0
				c3.32,2.11,5.37,6.02,5.37,10.24v10.7C224.76,245.08,223,246.19,221.6,245.3z"/>
		</g>
		<g>
			<path class="st8" d="M482.39,437.19v-51.16H378.62v51.16l0,0c0,8.45,5.07,16.9,15.2,23.34c20.26,12.89,53.11,12.89,73.38,0
				C477.33,454.09,482.39,445.64,482.39,437.19z"/>
			<linearGradient id="SVGID_18_" gradientUnits="userSpaceOnUse" x1="422.7654" y1="428.1194" x2="500.7734" y2="428.1194">
				<stop  offset="0" style="stop-color:#FFFFFF;stop-opacity:0"/>
				<stop  offset="1" style="stop-color:#653089"/>
			</linearGradient>
			<path class="st28" d="M482.39,437.19v-51.16H378.62v51.16l0,0c0,8.45,5.07,16.9,15.2,23.34c20.26,12.89,53.11,12.89,73.38,0
				C477.33,454.09,482.39,445.64,482.39,437.19z"/>
			<ellipse class="st10" cx="430.51" cy="386.03" rx="51.89" ry="33.01"/>
			<g>
				<linearGradient id="SVGID_19_" gradientUnits="userSpaceOnUse" x1="430.506" y1="326.5836" x2="430.506" y2="439.7874">
					<stop  offset="1.694780e-03" style="stop-color:#4BBBBA"/>
					<stop  offset="1" style="stop-color:#49BABA;stop-opacity:0"/>
				</linearGradient>
				<ellipse class="st29" cx="430.51" cy="379.62" rx="51.89" ry="33.01"/>
				<g>
					<path class="st19" d="M467.74,287.63c0,2.1-1.55,3.81-3.46,3.81c-1.91,0-3.46-1.71-3.46-3.81c0-2.1,1.55-3.81,3.46-3.81
						C466.2,283.82,467.74,285.53,467.74,287.63z"/>
					<ellipse class="st19" cx="460.83" cy="369.67" rx="3.46" ry="3.81"/>
					<path class="st19" d="M404.97,340.36c0,2.1-1.55,3.81-3.46,3.81c-1.91,0-3.46-1.71-3.46-3.81s1.55-3.81,3.46-3.81
						C403.43,336.55,404.97,338.26,404.97,340.36z"/>
					<path class="st19" d="M459.56,271.52c0,1.33-0.98,2.4-2.18,2.4c-1.2,0-2.18-1.08-2.18-2.4s0.98-2.4,2.18-2.4
						C458.58,269.12,459.56,270.19,459.56,271.52z"/>
					<path class="st19" d="M449.83,379.62c0,1.33-0.98,2.4-2.18,2.4c-1.2,0-2.18-1.08-2.18-2.4c0-1.33,0.98-2.4,2.18-2.4
						C448.85,377.22,449.83,378.29,449.83,379.62z"/>
					<path class="st19" d="M403.31,268.07c0,1.33-0.98,2.4-2.18,2.4c-1.2,0-2.18-1.08-2.18-2.4c0-1.33,0.98-2.4,2.18-2.4
						C402.33,265.67,403.31,266.75,403.31,268.07z"/>
					<path class="st19" d="M475.75,338.65c0,1.33-0.98,2.4-2.18,2.4c-1.2,0-2.18-1.08-2.18-2.4s0.98-2.4,2.18-2.4
						C474.78,336.24,475.75,337.32,475.75,338.65z"/>
					<path class="st19" d="M397.98,373.48c0,1.33-0.98,2.4-2.18,2.4c-1.2,0-2.18-1.08-2.18-2.4s0.98-2.4,2.18-2.4
						C397,371.08,397.98,372.16,397.98,373.48z"/>
					<g>
						<path class="st30" d="M463.05,329.42c0,0.18,0,0.38-0.02,0.55c-0.02,2.25-0.2,4.35-0.54,6.27c-0.2,1.17-0.46,2.27-0.78,3.31
							c-1.32,4.44-3.59,7.77-6.53,9.83l0.02,0.02l-0.26,0.18c-0.16,0.09-0.32,0.2-0.5,0.31l-8.01,5.12l-1.8-3.42
							c-3.13-0.49-6.51-1.77-10.08-4.04c-15.75-10-28.49-34.38-28.49-54.41c0-2.03,0.14-3.93,0.4-5.7c0.16-1.13,0.38-2.21,0.62-3.22
							c0.22-0.84,0.46-1.63,0.72-2.41l-1.88-3.58l8.09-5.15c0.28-0.18,0.54-0.35,0.82-0.51l0.44-0.29l0.02,0.04
							c3.29-1.74,7.29-2.1,11.74-0.82c0.92,0.26,1.88,0.6,2.85,1.02c1.52,0.64,3.09,1.46,4.67,2.47c0.12,0.07,0.24,0.15,0.36,0.24
							c0.7,0.44,1.4,0.95,2.1,1.48c1.36,0.99,2.73,2.12,4.03,3.36c0.58,0.55,1.18,1.1,1.74,1.7c1.16,1.17,2.28,2.43,3.39,3.75
							c0.5,0.6,1,1.24,1.48,1.88c1.02,1.3,1.98,2.65,2.93,4.04c0.42,0.66,0.86,1.33,1.26,2.01c0.88,1.39,1.72,2.85,2.5,4.33
							c0.38,0.71,0.76,1.41,1.1,2.12c0.76,1.5,1.46,3.03,2.1,4.57c0.32,0.75,0.62,1.48,0.9,2.23c0.62,1.61,1.18,3.22,1.68,4.84
							c0.26,0.79,0.48,1.59,0.7,2.38c0.48,1.72,0.88,3.45,1.18,5.15c0.18,0.84,0.32,1.7,0.44,2.54c0.28,1.88,0.46,3.73,0.54,5.56
							C463.03,327.94,463.05,328.69,463.05,329.42z"/>
						<g>
							<path class="st31" d="M429.87,272.54l-23.42,14.91l-1.9,1.21l-0.58-2.45l3.11-1.99l19.96-12.7
								C427.95,271.79,428.91,272.12,429.87,272.54z"/>
							<path class="st31" d="M437.01,276.73l-28.39,18.06l-0.58-2.45l26.87-17.09C435.6,275.69,436.31,276.2,437.01,276.73z"/>
							<path class="st31" d="M442.78,281.79l-30.1,19.15l-0.56-2.45l28.91-18.39C441.62,280.64,442.22,281.19,442.78,281.79z"/>
							<path class="st31" d="M447.65,287.42l-30.88,19.63l-0.58-2.45l29.98-19.06C446.66,286.14,447.17,286.78,447.65,287.42z"/>
							<path class="st31" d="M451.83,293.47l-31,19.72l-0.56-2.45l30.3-19.28C450.99,292.12,451.43,292.79,451.83,293.47z"/>
							<path class="st31" d="M455.44,299.92l-30.52,19.41l-0.58-2.45l30-19.08C454.72,298.51,455.1,299.21,455.44,299.92z"/>
							<path class="st31" d="M458.45,306.72l-29.45,18.75l-0.58-2.45l29.13-18.53C457.87,305.24,458.17,305.97,458.45,306.72z"/>
							<path class="st31" d="M460.83,313.94l-27.77,17.67l-0.56-2.45l27.63-17.6C460.39,312.35,460.61,313.15,460.83,313.94z"/>
							<path class="st31" d="M462.45,321.63l-25.31,16.12l-0.58-2.45l25.45-16.21C462.19,319.93,462.33,320.79,462.45,321.63z"/>
							<path class="st31" d="M463.05,329.42c0,0.18,0,0.38-0.02,0.55l-21.82,13.89l-0.58-2.45l22.36-14.22
								C463.03,327.94,463.05,328.69,463.05,329.42z"/>
							<path class="st31" d="M462.49,336.24c-0.2,1.17-0.46,2.27-0.78,3.31L445.28,350l-0.56-2.45L462.49,336.24z"/>
						</g>
						
							<ellipse transform="matrix(0.9019 -0.4319 0.4319 0.9019 -94.832 215.1941)" class="st32" cx="426.46" cy="316.43" rx="23.77" ry="43.5"/>
						<path class="st30" d="M431.67,291.4c-0.99,0.02-1.99,0.02-2.98,0c1.08,1.01,2.14,2.1,3.14,3.27l1.77-1.14
							C432.98,292.8,432.32,292.08,431.67,291.4z M406.45,287.44c-0.01,0.06-0.01,0.14-0.03,0.21c0.22,0.06,0.42,0.13,0.63,0.19
							c0.23-0.46,0.51-0.88,0.79-1.28L406.45,287.44z M431.67,291.4c-0.99,0.02-1.99,0.02-2.98,0c1.08,1.01,2.14,2.1,3.14,3.27
							l1.77-1.14C432.98,292.8,432.32,292.08,431.67,291.4z M406.42,287.65c0.22,0.06,0.42,0.13,0.63,0.19
							c0.23-0.46,0.51-0.88,0.79-1.28l-1.38,0.88C406.43,287.51,406.43,287.59,406.42,287.65z M449.68,329.76
							c-0.09-0.87-0.2-1.73-0.33-2.6c-0.28-1.73-0.64-3.46-1.09-5.23c-0.2-0.8-0.42-1.6-0.65-2.4c-0.48-1.62-1.03-3.25-1.64-4.86
							c-0.28-0.75-0.58-1.52-0.89-2.26c-0.64-1.56-1.34-3.09-2.08-4.58c-0.36-0.72-0.73-1.43-1.11-2.12
							c-0.79-1.47-1.63-2.92-2.52-4.31c-0.41-0.67-0.84-1.33-1.29-1.99c-0.93-1.41-1.92-2.76-2.94-4.04
							c-0.51-0.64-1.02-1.25-1.53-1.84c-0.63-0.74-1.28-1.46-1.93-2.13c-0.51-0.55-1.03-1.06-1.56-1.55
							c-0.6-0.59-1.19-1.14-1.8-1.67c-1.4-1.2-2.82-2.28-4.26-3.19c-0.03-0.03-0.06-0.05-0.09-0.06c-0.76-0.48-1.5-0.91-2.24-1.28
							c-2.09-1.09-4.13-1.81-6.02-2.08c-0.67-0.13-1.32-0.18-1.96-0.18c-1.02,0-1.93,0.13-2.78,0.37c-1.56,0.45-2.82,1.27-3.84,2.32
							l-0.25,0.27l-0.01,0.02c-0.73,0.82-1.32,1.76-1.8,2.79c-0.2,0.42-0.38,0.87-0.55,1.3v0.02c-1.29,3.48-1.53,7.41-1.53,9.83
							c0,17.17,10.91,38.73,24.22,48.38c0.58,0.45,1.18,0.85,1.77,1.23c3.65,2.32,7.19,3.56,10.23,3.56c1.08,0,2.07-0.14,2.94-0.42
							c1.16-0.35,2.17-0.93,3.01-1.67c0.44-0.35,0.83-0.75,1.18-1.2c0.67-0.8,1.21-1.72,1.66-2.69v-0.02
							c1.02-2.24,1.53-4.78,1.77-7.04c0.12-1.06,0.17-2.07,0.19-2.93c0.01-0.34,0.01-0.66,0.01-0.95
							C449.95,332.98,449.86,331.38,449.68,329.76z M447.52,339.85c-0.51,2.93-1.57,6.06-3.78,7.87c-1.16,0.95-2.66,1.54-4.55,1.54
							c-0.65,0-1.32-0.06-2.04-0.19h-0.01c-1.91-0.35-3.96-1.19-6.12-2.45h-0.03c-0.33-0.19-0.68-0.38-1.02-0.61
							c-13.56-8.62-25-30.47-25-47.71c0-2.08,0.19-5.47,1.22-8.46c0.23-0.69,0.52-1.36,0.86-1.99c0.23-0.46,0.51-0.88,0.79-1.28
							l0.01-0.02c1.06-1.43,2.5-2.48,4.47-2.84h0.01c0.44-0.06,0.9-0.11,1.41-0.11c1.76,0,3.74,0.48,5.83,1.41
							c0.8,0.35,1.61,0.79,2.44,1.27c0.32,0.18,0.63,0.37,0.95,0.58c1.18,0.75,2.33,1.59,3.46,2.53c0.63,0.51,1.25,1.06,1.86,1.64
							c0.15,0.11,0.26,0.22,0.39,0.38h0.01c1.08,1.01,2.14,2.1,3.14,3.27c0.54,0.59,1.05,1.2,1.54,1.83
							c1.03,1.27,2.02,2.61,2.98,4.01c0.44,0.64,0.87,1.31,1.29,1.99c0.89,1.39,1.73,2.84,2.52,4.31c0.38,0.69,0.76,1.39,1.11,2.12
							c0.74,1.51,1.44,3.05,2.07,4.6c0.32,0.74,0.61,1.49,0.89,2.24c0.61,1.62,1.15,3.25,1.6,4.89v0.02c0.25,0.82,0.45,1.6,0.65,2.4
							c0.42,1.76,0.77,3.53,1,5.26c0.13,0.88,0.23,1.76,0.31,2.63c0.1,1.22,0.16,2.42,0.16,3.59c0,0.64-0.01,1.41-0.07,2.26
							C447.81,337.76,447.7,338.79,447.52,339.85z M406.45,287.44c-0.01,0.06-0.01,0.14-0.03,0.21c0.22,0.06,0.42,0.13,0.63,0.19
							c0.23-0.46,0.51-0.88,0.79-1.28L406.45,287.44z M431.67,291.4c-0.99,0.02-1.99,0.02-2.98,0c1.08,1.01,2.14,2.1,3.14,3.27
							l1.77-1.14C432.98,292.8,432.32,292.08,431.67,291.4z"/>
						<g>
							<path class="st30" d="M434.4,322.02c-0.29-0.75-0.64-1.48-1.03-2.16c-0.83-1.46-1.88-2.79-3.03-3.98
								c-0.58-0.59-1.18-1.17-1.79-1.68c-0.45-0.4-0.9-0.77-1.35-1.12c-1.09-0.83-1.98-1.54-2.56-2.31
								c-0.47-0.61-0.73-1.25-0.73-2.02c0-0.13,0.01-0.26,0.04-0.35c0.1-0.43,0.42-0.59,0.86-0.55c0.48,0.03,1.13,0.32,1.79,0.74
								c0.23,0.14,0.47,0.3,0.7,0.48c1.31,0.91,2.5,2.07,3.58,3.65c0.13,0.18,0.25,0.35,0.36,0.54l2.2-2.18l0.03-0.03h0.01
								l0.54-0.53c-0.92-1.49-1.86-2.77-2.88-3.9c-0.55-0.61-1.13-1.17-1.73-1.7c-0.17-0.16-0.36-0.32-0.54-0.46v-3.21l-1.5-0.95
								l-2.23-1.41l-1.05-0.67v3.29c-0.77-0.3-1.51-0.5-2.18-0.56h-0.01c-1.57-0.13-2.79,0.48-3.32,2.12
								c-0.19,0.58-0.29,1.27-0.29,2.1c0,0.3,0.01,0.59,0.03,0.88c0.16,2.81,1.09,5.07,2.47,7.02l0.01,0.02
								c0.01,0.03,0.03,0.06,0.04,0.08c0.97,1.36,2.17,2.58,3.48,3.7c0.63,0.55,1.29,1.07,1.96,1.57c0.03,0.03,0.04,0.05,0.07,0.06
								c1.82,1.36,2.91,2.65,3.2,3.77c0.09,0.22,0.12,0.43,0.12,0.64c0,0.79-0.39,1.14-1.05,1.09c-0.54-0.02-1.24-0.3-2.07-0.83
								c-1.67-1.06-3.85-2.89-5.82-6.54l-3.08,2.53c2.07,4.14,4.04,6.51,6.43,8.38v3.4l4.77,3.03v-3.49
								c1.53,0.64,2.95,0.87,4.06,0.53c1.25-0.38,2.09-1.51,2.27-3.57v-0.02c0.03-0.27,0.04-0.56,0.04-0.87
								C435.25,324.95,434.94,323.43,434.4,322.02z"/>
						</g>
					</g>
				</g>
				<g>
					<linearGradient id="SVGID_20_" gradientUnits="userSpaceOnUse" x1="346.328" y1="335.5167" x2="438.3192" y2="335.5167">
						<stop  offset="1.694780e-03" style="stop-color:#4BBBBA"/>
						<stop  offset="1" style="stop-color:#49BABA;stop-opacity:0"/>
					</linearGradient>
					<path class="st33" d="M482.39,379.62V258.4c0,8.45-5.07,16.9-15.2,23.34c-20.26,12.89-53.11,12.89-73.38,0
						c-10.13-6.45-15.2-14.9-15.2-23.34v121.22l0,0c0,8.45,5.07,16.9,15.2,23.34c20.26,12.89,53.11,12.89,73.38,0
						C477.33,396.52,482.39,388.07,482.39,379.62z"/>
					<linearGradient id="SVGID_21_" gradientUnits="userSpaceOnUse" x1="503.6201" y1="335.5167" x2="439.0489" y2="335.5167">
						<stop  offset="1.694780e-03" style="stop-color:#4BBBBA"/>
						<stop  offset="1" style="stop-color:#49BABA;stop-opacity:0"/>
					</linearGradient>
					<path class="st34" d="M482.39,379.62V258.4c0,8.45-5.07,16.9-15.2,23.34c-20.26,12.89-53.11,12.89-73.38,0
						c-10.13-6.45-15.2-14.9-15.2-23.34v121.22l0,0c0,8.45,5.07,16.9,15.2,23.34c20.26,12.89,53.11,12.89,73.38,0
						C477.33,396.52,482.39,388.07,482.39,379.62z"/>
					<linearGradient id="SVGID_22_" gradientUnits="userSpaceOnUse" x1="430.506" y1="205.3589" x2="430.506" y2="318.5626">
						<stop  offset="1.694780e-03" style="stop-color:#4BBBBA"/>
						<stop  offset="1" style="stop-color:#49BABA;stop-opacity:0"/>
					</linearGradient>
					<ellipse class="st35" cx="430.51" cy="258.4" rx="51.89" ry="33.01"/>
				</g>
			</g>
			<path class="st10" d="M386.39,327.35L386.39,327.35c-2.19-1.39-3.54-3.97-3.54-6.75v-35.02c0-1.16,1.14-1.88,2.04-1.3l0,0
				c2.25,1.43,3.63,4.07,3.63,6.93v34.79C388.53,327.2,387.34,327.95,386.39,327.35z"/>
			<path class="st10" d="M386.39,351L386.39,351c-2.19-1.39-3.54-3.97-3.54-6.75v-7.47c0-1.16,1.14-1.88,2.04-1.3l0,0
				c2.25,1.43,3.63,4.07,3.63,6.93v7.23C388.53,350.85,387.34,351.6,386.39,351z"/>
		</g>
		<g>
			<path class="st8" d="M194.93,277.32v-51.16H91.16v51.16l0,0c0,8.45,5.07,16.9,15.2,23.34c20.26,12.89,53.11,12.89,73.38,0
				C189.86,294.22,194.93,285.77,194.93,277.32z"/>
			<linearGradient id="SVGID_23_" gradientUnits="userSpaceOnUse" x1="135.3029" y1="268.2478" x2="213.3107" y2="268.2478">
				<stop  offset="0" style="stop-color:#FFFFFF;stop-opacity:0"/>
				<stop  offset="1" style="stop-color:#653089"/>
			</linearGradient>
			<path class="st36" d="M194.93,277.32v-51.16H91.16v51.16l0,0c0,8.45,5.07,16.9,15.2,23.34c20.26,12.89,53.11,12.89,73.38,0
				C189.86,294.22,194.93,285.77,194.93,277.32z"/>
			<ellipse class="st10" cx="143.04" cy="226.16" rx="51.89" ry="33.01"/>
			<g>
				<linearGradient id="SVGID_24_" gradientUnits="userSpaceOnUse" x1="143.0433" y1="166.7121" x2="143.0433" y2="279.9159">
					<stop  offset="1.694780e-03" style="stop-color:#4BBBBA"/>
					<stop  offset="1" style="stop-color:#49BABA;stop-opacity:0"/>
				</linearGradient>
				<ellipse class="st37" cx="143.04" cy="219.75" rx="51.89" ry="33.01"/>
				<g>
					<ellipse class="st38" cx="176.83" cy="127.76" rx="3.46" ry="3.81"/>
					<ellipse class="st38" cx="173.37" cy="209.8" rx="3.46" ry="3.81"/>
					<path class="st38" d="M117.51,180.49c0,2.1-1.55,3.81-3.46,3.81c-1.91,0-3.46-1.71-3.46-3.81c0-2.1,1.55-3.81,3.46-3.81
						C115.96,176.68,117.51,178.39,117.51,180.49z"/>
					<path class="st38" d="M172.09,111.65c0,1.33-0.98,2.4-2.18,2.4s-2.18-1.08-2.18-2.4c0-1.33,0.98-2.4,2.18-2.4
						S172.09,110.32,172.09,111.65z"/>
					<path class="st38" d="M162.37,219.75c0,1.33-0.98,2.4-2.18,2.4s-2.18-1.08-2.18-2.4c0-1.33,0.98-2.4,2.18-2.4
						S162.37,218.42,162.37,219.75z"/>
					<path class="st38" d="M115.85,108.2c0,1.33-0.98,2.4-2.18,2.4s-2.18-1.08-2.18-2.4c0-1.33,0.98-2.4,2.18-2.4
						S115.85,106.87,115.85,108.2z"/>
					<path class="st38" d="M188.29,178.77c0,1.33-0.98,2.4-2.18,2.4s-2.18-1.08-2.18-2.4s0.98-2.4,2.18-2.4
						S188.29,177.45,188.29,178.77z"/>
					<path class="st38" d="M110.52,213.61c0,1.33-0.98,2.4-2.18,2.4s-2.18-1.08-2.18-2.4c0-1.33,0.98-2.4,2.18-2.4
						S110.52,212.28,110.52,213.61z"/>
					<g>
						<path class="st38" d="M175.59,169.55c0,0.18,0,0.38-0.02,0.55c-0.02,2.25-0.2,4.35-0.54,6.27c-0.2,1.17-0.46,2.27-0.78,3.31
							c-1.32,4.44-3.59,7.77-6.53,9.83l0.02,0.02l-0.26,0.18c-0.16,0.09-0.32,0.2-0.5,0.31l-8.01,5.12l-1.8-3.42
							c-3.13-0.49-6.51-1.77-10.08-4.04c-15.75-10-28.49-34.38-28.49-54.41c0-2.03,0.14-3.93,0.4-5.7c0.16-1.13,0.38-2.21,0.62-3.22
							c0.22-0.84,0.46-1.63,0.72-2.41l-1.88-3.58l8.1-5.15c0.28-0.18,0.54-0.35,0.82-0.51l0.44-0.29l0.02,0.04
							c3.29-1.74,7.29-2.1,11.74-0.82c0.92,0.26,1.88,0.6,2.85,1.02c1.52,0.64,3.09,1.46,4.67,2.47c0.12,0.07,0.24,0.15,0.36,0.24
							c0.7,0.44,1.4,0.95,2.1,1.48c1.36,0.99,2.73,2.12,4.03,3.36c0.58,0.55,1.18,1.1,1.74,1.7c1.16,1.17,2.28,2.43,3.39,3.75
							c0.5,0.6,1,1.24,1.48,1.88c1.02,1.3,1.98,2.65,2.93,4.04c0.42,0.66,0.86,1.33,1.26,2.01c0.88,1.39,1.72,2.85,2.5,4.33
							c0.38,0.71,0.76,1.41,1.1,2.12c0.76,1.5,1.46,3.03,2.1,4.57c0.32,0.75,0.62,1.48,0.9,2.23c0.62,1.61,1.18,3.22,1.68,4.84
							c0.26,0.79,0.48,1.59,0.7,2.38c0.48,1.72,0.88,3.45,1.18,5.15c0.18,0.84,0.32,1.7,0.44,2.54c0.28,1.88,0.46,3.73,0.54,5.56
							C175.57,168.07,175.59,168.82,175.59,169.55z"/>
						<linearGradient id="SVGID_25_" gradientUnits="userSpaceOnUse" x1="138.9059" y1="135.6715" x2="171.8509" y2="199.0981">
							<stop  offset="0" style="stop-color:#FFFFFF;stop-opacity:0"/>
							<stop  offset="1" style="stop-color:#653089"/>
						</linearGradient>
						<path class="st39" d="M175.59,169.55c0,0.18,0,0.38-0.02,0.55c-0.02,2.25-0.2,4.35-0.54,6.27c-0.2,1.17-0.46,2.27-0.78,3.31
							c-1.32,4.44-3.59,7.77-6.53,9.83l0.02,0.02l-0.26,0.18c-0.16,0.09-0.32,0.2-0.5,0.31l-8.01,5.12l-1.8-3.42
							c-3.13-0.49-6.51-1.77-10.08-4.04c-15.75-10-28.49-34.38-28.49-54.41c0-2.03,0.14-3.93,0.4-5.7c0.16-1.13,0.38-2.21,0.62-3.22
							c0.22-0.84,0.46-1.63,0.72-2.41l-1.88-3.58l8.1-5.15c0.28-0.18,0.54-0.35,0.82-0.51l0.44-0.29l0.02,0.04
							c3.29-1.74,7.29-2.1,11.74-0.82c0.92,0.26,1.88,0.6,2.85,1.02c1.52,0.64,3.09,1.46,4.67,2.47c0.12,0.07,0.24,0.15,0.36,0.24
							c0.7,0.44,1.4,0.95,2.1,1.48c1.36,0.99,2.73,2.12,4.03,3.36c0.58,0.55,1.18,1.1,1.74,1.7c1.16,1.17,2.28,2.43,3.39,3.75
							c0.5,0.6,1,1.24,1.48,1.88c1.02,1.3,1.98,2.65,2.93,4.04c0.42,0.66,0.86,1.33,1.26,2.01c0.88,1.39,1.72,2.85,2.5,4.33
							c0.38,0.71,0.76,1.41,1.1,2.12c0.76,1.5,1.46,3.03,2.1,4.57c0.32,0.75,0.62,1.48,0.9,2.23c0.62,1.61,1.18,3.22,1.68,4.84
							c0.26,0.79,0.48,1.59,0.7,2.38c0.48,1.72,0.88,3.45,1.18,5.15c0.18,0.84,0.32,1.7,0.44,2.54c0.28,1.88,0.46,3.73,0.54,5.56
							C175.57,168.07,175.59,168.82,175.59,169.55z"/>
						
							<ellipse transform="matrix(0.9019 -0.4319 0.4319 0.9019 -53.9785 75.377)" class="st40" cx="139" cy="156.55" rx="23.77" ry="43.5"/>
						
							<ellipse transform="matrix(0.9019 -0.4319 0.4319 0.9019 -53.9785 75.3771)" class="st41" cx="139" cy="156.55" rx="18.74" ry="34.3"/>
						
							<ellipse transform="matrix(0.9019 -0.4319 0.4319 0.9019 -53.9785 75.3769)" class="st41" cx="139" cy="156.55" rx="13.07" ry="23.93"/>
						<path class="st41" d="M148.27,162.46c0,6.52-4.15,9.16-9.27,5.9c-5.12-3.26-9.27-11.19-9.27-17.7c0-6.52,4.15-9.16,9.27-5.9
							C144.12,148.01,148.27,155.94,148.27,162.46z"/>
						<path class="st10" d="M142.65,158.88c0,2.56-1.63,3.6-3.65,2.32c-2.01-1.28-3.65-4.4-3.65-6.96c0-2.56,1.63-3.6,3.65-2.32
							C141.01,153.19,142.65,156.31,142.65,158.88z"/>
					</g>
				</g>
				<g>
					<linearGradient id="SVGID_26_" gradientUnits="userSpaceOnUse" x1="58.8655" y1="175.6451" x2="150.8566" y2="175.6451">
						<stop  offset="1.694780e-03" style="stop-color:#4BBBBA"/>
						<stop  offset="1" style="stop-color:#49BABA;stop-opacity:0"/>
					</linearGradient>
					<path class="st42" d="M194.93,219.75V98.53c0,8.45-5.07,16.9-15.2,23.34c-20.26,12.89-53.11,12.89-73.38,0
						c-10.13-6.45-15.2-14.9-15.2-23.34v121.22l0,0c0,8.45,5.07,16.9,15.2,23.34c20.26,12.89,53.11,12.89,73.38,0
						C189.86,236.65,194.93,228.2,194.93,219.75z"/>
					<linearGradient id="SVGID_27_" gradientUnits="userSpaceOnUse" x1="216.1574" y1="175.6451" x2="151.5863" y2="175.6451">
						<stop  offset="1.694780e-03" style="stop-color:#4BBBBA"/>
						<stop  offset="1" style="stop-color:#49BABA;stop-opacity:0"/>
					</linearGradient>
					<path class="st43" d="M194.93,219.75V98.53c0,8.45-5.07,16.9-15.2,23.34c-20.26,12.89-53.11,12.89-73.38,0
						c-10.13-6.45-15.2-14.9-15.2-23.34v121.22l0,0c0,8.45,5.07,16.9,15.2,23.34c20.26,12.89,53.11,12.89,73.38,0
						C189.86,236.65,194.93,228.2,194.93,219.75z"/>
					<linearGradient id="SVGID_28_" gradientUnits="userSpaceOnUse" x1="143.0433" y1="45.4874" x2="143.0433" y2="158.6911">
						<stop  offset="1.694780e-03" style="stop-color:#4BBBBA"/>
						<stop  offset="1" style="stop-color:#49BABA;stop-opacity:0"/>
					</linearGradient>
					<ellipse class="st44" cx="143.04" cy="98.53" rx="51.89" ry="33.01"/>
				</g>
			</g>
			<path class="st10" d="M98.93,167.48L98.93,167.48c-2.19-1.39-3.54-3.97-3.54-6.75V125.7c0-1.16,1.14-1.88,2.04-1.3l0,0
				c2.25,1.43,3.63,4.07,3.63,6.93v34.79C101.06,167.32,99.88,168.08,98.93,167.48z"/>
			<path class="st10" d="M98.93,191.13L98.93,191.13c-2.19-1.39-3.54-3.97-3.54-6.75v-7.47c0-1.16,1.14-1.88,2.04-1.3l0,0
				c2.25,1.43,3.63,4.07,3.63,6.93v7.23C101.06,190.98,99.88,191.73,98.93,191.13z"/>
		</g>
		<g>
			<path class="st45" d="M301.32,364.48c0,0-8.56,10.04-9.12,20.02l1.67,3.93l3.45-2.77c0,0,2.45-13.12,6.9-17.04L301.32,364.48z"/>
			<path class="st46" d="M321.41,482.09c0,0,0.59,6.21-2.17,5.89c-3.21-0.38-13.16-7.76-10.95-10.08
				c2.22-2.33,10.52,1.88,10.52,1.88L321.41,482.09z"/>
			<path class="st46" d="M303.73,491.29c0,0,0.59,6.21-2.17,5.89c-3.21-0.38-13.16-7.76-10.95-10.08
				c2.22-2.33,10.52,1.88,10.52,1.88L303.73,491.29z"/>
			<rect x="306.25" y="336.43" class="st47" width="5.9" height="9.19"/>
			<path class="st45" d="M299.96,385.98c0,0-9.5,23.89-2.36,105.9c0.04,0.42,0.25,0.8,0.58,1.02c1.25,0.79,4.4,2.2,6.03-2.44
				c0.04-0.12,0.07-0.26,0.08-0.39l6.19-85.9c0.05-1.38,0.7-1.45,0.83-0.07l3.8,78.54c0.03,0.59,0.37,1.11,0.87,1.32
				c1.66,0.69,5.31,1.49,5.99-4.29c0,0,6.45-84.96-1.08-96.48L299.96,385.98z"/>
			<path class="st46" d="M320.89,380.57c-0.17,0.35-0.37,0.68-0.63,0.97c-2.16,2.44-7.99,6.84-19.6,2.26
				c-0.26-0.1-0.49-0.26-0.69-0.46v2.63c0.2,0.2,0.43,0.35,0.69,0.46c11.61,4.57,17.44,0.18,19.6-2.26
				c0.26-0.29,0.46-0.62,0.63-0.97V380.57z"/>
			<path class="st10" d="M344.49,302.65c0,0,0.01-5.56,0.69-5.68c0.48-0.08,0.47,1.76,0.47,1.76s0.57-4.13,1.38-3.9
				c0.3,0.08-0.08,2.62-0.08,2.62s0.35-1.45,2.45,0c0.65,0.45,0.5,1.8-1.99,6.12L344.49,302.65z"/>
			<path class="st48" d="M319.64,339.95c0,0,17.67-1.69,24.65-37.74c0,0,1.88-0.39,3.38,1.31c0,0-1.04,43.35-25.5,51.67
				L319.64,339.95z"/>
			<path class="st49" d="M306.25,342.51l5.9-1.48l9.31-1.34c2.28-0.33,3.92,3.31,4.08,7.2c0.31,7.4-4.2,32.58-4.2,32.58
				c-0.06,1.02-0.44,1.98-1.08,2.71c-2.15,2.43-7.97,6.87-19.62,2.28c-0.74-0.29-1.27-1.01-1.39-1.86l-4.34-29.77
				c-0.23-1.55,0.37-3.11,1.54-4.01L306.25,342.51z"/>
			<path class="st10" d="M298.9,324.88c0,0,0.72,8.89,4.05,13.45c3.33,4.56,9.79-2.96,10.76-5.16c0.96-2.19,2.52-15.94-7.5-15.94
				C299.71,317.23,298.57,321.68,298.9,324.88z"/>
			<path class="st45" d="M308.55,330.41c0,0-3.37-2.63-4.62-7.1c0,0-0.74-0.49-4.84,3.3c0,0-4.63-0.01-2.48-5.39
				c2.15-5.38,11.04-12.17,15.32-6.8c0,0,8.14-1.49,6.57,10.13c-2.08,15.32-8.59,12.79-10.21,9.29
				C306.7,330.42,308.55,330.41,308.55,330.41z"/>
			<path class="st10" d="M306.45,328.61c0,0,1.35-2.93,2.46-1.18c1.11,1.75-0.23,5.27-2.66,5.73L306.45,328.61z"/>
			<polygon class="st45" points="269.62,339.86 282.16,353.62 294.74,345.38 282.16,331.19 			"/>
			<polyline class="st50" points="281.09,347.22 281.09,344.13 283.73,344.13 283.73,337.64 			"/>
			<polyline class="st50" points="281.24,339.44 283.59,336.85 286.23,339.76 			"/>
			<path class="st10" d="M275.06,345.82c-0.05-0.08,0.98-1.26,1.76-2.13c0.23-0.25,0.61-0.01,0.52,0.33l-0.52,2.03
				c0,0,2.67-0.82,1.17,4.03l-2.59,0.77L275.06,345.82z"/>
			<path class="st48" d="M278.22,350.02c0,0,13.74,27.2,5.57,28.91c-8.17,1.71-8.57-28.02-8.57-28.02S276.02,349.66,278.22,350.02z"
				/>
			<path class="st48" d="M296.47,348.82c0,0-3.69,2.04-8.82,10.09c-6.96,10.93-10.17,17.46-3.7,19.86
				c1.64,0.61,12.94-12.46,12.94-12.46S301.5,355.48,296.47,348.82z"/>
			<path class="st48" d="M305.06,343.28l1.19-2.25c0,0,2.03-1.37,5.9-1.46l1.41,1.32C313.57,340.89,313.27,342.44,305.06,343.28z"/>
		</g>
		<g>
			<polygon class="st8" points="184.52,316.38 139.88,427.37 135.82,424.71 135.82,360.21 			"/>
			<polygon class="st8" points="188.58,319.04 188.58,396.38 139.88,427.37 139.88,362.87 			"/>
			<linearGradient id="SVGID_29_" gradientUnits="userSpaceOnUse" x1="137.24" y1="319.2245" x2="199.8222" y2="444.3886">
				<stop  offset="0" style="stop-color:#FFFFFF;stop-opacity:0"/>
				<stop  offset="1" style="stop-color:#653089"/>
			</linearGradient>
			<polygon class="st51" points="188.58,319.04 188.58,396.38 139.88,427.37 139.88,362.87 			"/>
		</g>
		<g>
			<polygon class="st8" points="262.95,366.21 218.31,477.2 214.25,474.54 214.25,410.04 			"/>
			<polygon class="st8" points="267.01,368.87 267.01,446.2 218.31,477.2 218.31,412.7 			"/>
			<linearGradient id="SVGID_30_" gradientUnits="userSpaceOnUse" x1="177.9807" y1="423.031" x2="327.7263" y2="423.031">
				<stop  offset="0" style="stop-color:#FFFFFF;stop-opacity:0"/>
				<stop  offset="1" style="stop-color:#653089"/>
			</linearGradient>
			<polygon class="st52" points="267.01,368.87 267.01,446.2 218.31,477.2 218.31,412.7 			"/>
		</g>
		<polygon class="st8" points="218.31,417.02 135.82,364.53 267.01,368.87 267.01,373.19 		"/>
		<linearGradient id="SVGID_31_" gradientUnits="userSpaceOnUse" x1="177.9806" y1="390.7742" x2="327.7255" y2="390.7742">
			<stop  offset="0" style="stop-color:#FFFFFF;stop-opacity:0"/>
			<stop  offset="1" style="stop-color:#653089"/>
		</linearGradient>
		<polygon class="st53" points="218.31,417.02 135.82,364.53 267.01,368.87 267.01,373.19 		"/>
		<polygon class="st10" points="218.31,412.7 135.82,360.21 184.52,316.38 267.01,368.87 		"/>
		<polygon class="st45" points="217.19,405.48 145.42,359.78 185.64,323.58 257.41,369.28 		"/>
		<linearGradient id="SVGID_32_" gradientUnits="userSpaceOnUse" x1="195.9644" y1="327.3875" x2="191.7029" y2="369.3942">
			<stop  offset="3.946110e-03" style="stop-color:#FFFFFF;stop-opacity:0"/>
			<stop  offset="1" style="stop-color:#FCC872"/>
		</linearGradient>
		<path class="st54" d="M199.04,365.46l-27.36-17.42c-0.63-0.4-0.7-1.38-0.14-1.88l14.42-12.98c0.77-0.69,1.85-0.79,2.71-0.24
			l26.98,17.18c0.81,0.52,0.91,1.77,0.18,2.43l-14.08,12.67C200.98,365.91,199.9,366.01,199.04,365.46z"/>
		<linearGradient id="SVGID_33_" gradientUnits="userSpaceOnUse" x1="183.6007" y1="352.4977" x2="172.2792" y2="373.9695">
			<stop  offset="0" style="stop-color:#A56BAA;stop-opacity:0"/>
			<stop  offset="1" style="stop-color:#A56BAA"/>
		</linearGradient>
		<path class="st55" d="M186.78,376.27l-27.36-17.42c-0.63-0.4-0.7-1.38-0.14-1.88l7.13-6.27c0.77-0.69,1.85-0.79,2.71-0.24
			l26.98,17.18c0.81,0.52,0.91,1.77,0.18,2.43l-6.79,5.97C188.72,376.72,187.64,376.82,186.78,376.27z"/>
		<g>
			<linearGradient id="SVGID_34_" gradientUnits="userSpaceOnUse" x1="205.9379" y1="368.8785" x2="196.0363" y2="387.6572">
				<stop  offset="1.694780e-03" style="stop-color:#4BBBBA"/>
				<stop  offset="1" style="stop-color:#49BABA;stop-opacity:0"/>
			</linearGradient>
			<path class="st56" d="M200.61,385.39l-8.92-5.62c-0.63-0.4-0.7-1.38-0.14-1.88l7.13-6.27c0.77-0.69,1.85-0.79,2.71-0.24
				l8.54,5.38c0.81,0.52,0.91,1.77,0.18,2.43l-6.79,5.97C202.55,385.84,201.47,385.94,200.61,385.39z"/>
			<linearGradient id="SVGID_35_" gradientUnits="userSpaceOnUse" x1="220.2182" y1="368.4397" x2="210.6059" y2="399.6795">
				<stop  offset="1.694780e-03" style="stop-color:#EA5351"/>
				<stop  offset="1" style="stop-color:#EA5351;stop-opacity:0"/>
			</linearGradient>
			<path class="st57" d="M214.57,394.09l-9.51-6.2c-0.63-0.4-0.7-1.38-0.14-1.88l7.13-6.27c0.77-0.69,1.85-0.79,2.71-0.24l9.14,5.96
				c0.81,0.52,0.91,1.77,0.18,2.43l-6.79,5.97C216.51,394.55,215.43,394.64,214.57,394.09z"/>
		</g>
		<polygon class="st8" points="218.31,417.02 218.31,412.7 135.82,360.21 135.82,364.53 		"/>
		<path class="st58" d="M177.06,347.11c0.07-0.16,13.27-1.16,13.27-1.16l2.56,5.08h15.91l-3.44-1.82"/>
		<line class="st58" x1="208.8" y1="351.02" x2="208.8" y2="354.03"/>
		<ellipse class="st40" cx="223.57" cy="357.04" rx="1.66" ry="1.05"/>
		<ellipse class="st59" cx="228.36" cy="360.06" rx="1.66" ry="1.05"/>
		<path class="st40" d="M234.33,363.82c-0.65,0.41-1.7,0.41-2.34,0c-0.65-0.41-0.65-1.08,0-1.49c0.65-0.41,1.7-0.41,2.34,0
			C234.98,362.74,234.98,363.4,234.33,363.82z"/>
		<path class="st40" d="M239.12,366.83c-0.65,0.41-1.7,0.41-2.34,0c-0.65-0.41-0.65-1.08,0-1.49c0.65-0.41,1.7-0.41,2.34,0
			C239.77,365.75,239.77,366.42,239.12,366.83z"/>
		<path class="st40" d="M243.91,369.84c-0.65,0.41-1.7,0.41-2.34,0c-0.65-0.41-0.65-1.08,0-1.49c0.65-0.41,1.7-0.41,2.34,0
			C244.56,368.76,244.56,369.43,243.91,369.84z"/>
		<path class="st40" d="M220.8,361.09c-0.65,0.41-1.7,0.41-2.34,0c-0.65-0.41-0.65-1.08,0-1.49c0.65-0.41,1.7-0.41,2.34,0
			C221.45,360.01,221.45,360.68,220.8,361.09z"/>
		<path class="st40" d="M225.59,364.11c-0.65,0.41-1.7,0.41-2.34,0c-0.65-0.41-0.65-1.08,0-1.49c0.65-0.41,1.7-0.41,2.34,0
			C226.24,363.03,226.24,363.69,225.59,364.11z"/>
		<path class="st40" d="M230.39,367.12c-0.65,0.41-1.7,0.41-2.34,0c-0.65-0.41-0.65-1.08,0-1.49c0.65-0.41,1.7-0.41,2.34,0
			C231.03,366.04,231.03,366.71,230.39,367.12z"/>
		<path class="st59" d="M235.18,370.13c-0.65,0.41-1.7,0.41-2.34,0c-0.65-0.41-0.65-1.08,0-1.49c0.65-0.41,1.7-0.41,2.34,0
			C235.83,369.05,235.83,369.72,235.18,370.13z"/>
		<path class="st59" d="M239.97,373.14c-0.65,0.41-1.7,0.41-2.34,0c-0.65-0.41-0.65-1.08,0-1.49c0.65-0.41,1.7-0.41,2.34,0
			C240.62,372.06,240.62,372.73,239.97,373.14z"/>
		<path class="st59" d="M216.86,364.39c-0.65,0.41-1.7,0.41-2.34,0c-0.65-0.41-0.65-1.08,0-1.49c0.65-0.41,1.7-0.41,2.34,0
			C217.5,363.31,217.5,363.98,216.86,364.39z"/>
		<path class="st40" d="M221.65,367.41c-0.65,0.41-1.7,0.41-2.34,0c-0.65-0.41-0.65-1.08,0-1.49c0.65-0.41,1.7-0.41,2.34,0
			C222.3,366.33,222.3,367,221.65,367.41z"/>
		<ellipse class="st59" cx="225.27" cy="369.67" rx="1.66" ry="1.05"/>
		<path class="st40" d="M231.24,373.43c-0.65,0.41-1.7,0.41-2.34,0c-0.65-0.41-0.65-1.08,0-1.49c0.65-0.41,1.7-0.41,2.34,0
			C231.88,372.35,231.88,373.02,231.24,373.43z"/>
		<path class="st40" d="M236.03,376.45c-0.65,0.41-1.7,0.41-2.34,0c-0.65-0.41-0.65-1.08,0-1.49c0.65-0.41,1.7-0.41,2.34,0
			C236.68,375.37,236.68,376.03,236.03,376.45z"/>
		<path class="st40" d="M212.91,367.7c-0.65,0.41-1.7,0.41-2.34,0c-0.65-0.41-0.65-1.08,0-1.49c0.65-0.41,1.7-0.41,2.34,0
			C213.56,366.62,213.56,367.28,212.91,367.7z"/>
		<path class="st40" d="M217.71,370.71c-0.65,0.41-1.7,0.41-2.34,0c-0.65-0.41-0.65-1.08,0-1.49c0.65-0.41,1.7-0.41,2.34,0
			C218.35,369.63,218.35,370.3,217.71,370.71z"/>
		<path class="st40" d="M222.5,373.72c-0.65,0.41-1.7,0.41-2.34,0c-0.65-0.41-0.65-1.08,0-1.49c0.65-0.41,1.7-0.41,2.34,0
			C223.15,372.64,223.15,373.31,222.5,373.72z"/>
		<path class="st40" d="M227.29,376.74c-0.65,0.41-1.7,0.41-2.34,0c-0.65-0.41-0.65-1.08,0-1.49c0.65-0.41,1.7-0.41,2.34,0
			C227.94,375.66,227.94,376.32,227.29,376.74z"/>
		<path class="st59" d="M232.09,379.75c-0.65,0.41-1.7,0.41-2.34,0c-0.65-0.41-0.65-1.08,0-1.49c0.65-0.41,1.7-0.41,2.34,0
			C232.73,378.67,232.73,379.34,232.09,379.75z"/>
		<ellipse class="st59" cx="207.8" cy="370.25" rx="1.66" ry="1.05"/>
		<ellipse class="st40" cx="212.59" cy="373.27" rx="1.66" ry="1.05"/>
		<path class="st59" d="M218.56,377.02c-0.65,0.41-1.7,0.41-2.34,0c-0.65-0.41-0.65-1.08,0-1.49c0.65-0.41,1.7-0.41,2.34,0
			C219.2,375.95,219.2,376.61,218.56,377.02z"/>
		<ellipse class="st40" cx="222.18" cy="379.29" rx="1.66" ry="1.05"/>
		<path class="st59" d="M228.14,383.05c-0.65,0.41-1.7,0.41-2.34,0c-0.65-0.41-0.65-1.08,0-1.49c0.65-0.41,1.7-0.41,2.34,0
			C228.79,381.97,228.79,382.64,228.14,383.05z"/>
		<g>
			<line class="st60" x1="167.47" y1="353.66" x2="191.76" y2="369.32"/>
			<line class="st60" x1="165.69" y1="355.22" x2="189.98" y2="370.87"/>
			<line class="st60" x1="163.92" y1="356.77" x2="188.2" y2="372.43"/>
		</g>
		<g>
			<path class="st45" d="M155,355.24c0,0,9.04,10.6,9.63,21.13l-1.76,4.15l-3.64-2.93c0,0-2.58-13.84-7.28-17.98L155,355.24z"/>
			<path class="st46" d="M133.78,479.38c0,0-0.62,6.56,2.29,6.22c3.39-0.4,13.89-8.19,11.55-10.64c-2.34-2.46-11.1,1.99-11.1,1.99
				L133.78,479.38z"/>
			<path class="st46" d="M152.45,489.08c0,0-0.62,6.56,2.29,6.22c3.39-0.4,13.89-8.19,11.55-10.64c-2.34-2.46-11.1,1.99-11.1,1.99
				L152.45,489.08z"/>
			
				<rect x="143.56" y="325.64" transform="matrix(-1 -1.224647e-16 1.224647e-16 -1 293.3419 660.9845)" class="st10" width="6.23" height="9.7"/>
			<path class="st45" d="M156.42,377.94c0,0,10.03,25.22,2.5,111.77c-0.04,0.44-0.27,0.85-0.62,1.07c-1.32,0.84-4.65,2.32-6.37-2.57
				c-0.05-0.13-0.07-0.27-0.08-0.41l-6.53-90.66c-0.05-1.46-0.74-1.53-0.88-0.07l-4.01,82.89c-0.03,0.62-0.39,1.17-0.92,1.39
				c-1.76,0.73-5.6,1.57-6.32-4.52c0,0-6.81-89.67,1.14-101.82L156.42,377.94z"/>
			<path class="st46" d="M134.34,372.23c0.18,0.37,0.39,0.72,0.67,1.03c2.28,2.57,8.43,7.22,20.69,2.39
				c0.27-0.11,0.52-0.27,0.73-0.48v2.78c-0.21,0.21-0.46,0.37-0.73,0.48c-12.25,4.83-18.4,0.19-20.69-2.39
				c-0.27-0.31-0.48-0.66-0.67-1.03V372.23z"/>
			<path class="st49" d="M149.79,332.06l-6.23-1.56l-9.83-1.41c-2.41-0.35-4.14,3.49-4.31,7.6c-0.33,7.81,4.43,34.38,4.43,34.38
				c0.06,1.07,0.46,2.09,1.14,2.86c2.27,2.57,8.42,7.25,20.7,2.41c0.78-0.31,1.34-1.06,1.46-1.96l4.58-31.42
				c0.24-1.64-0.39-3.28-1.62-4.23L149.79,332.06z"/>
			<path class="st10" d="M157.54,313.45c0,0-0.76,9.38-4.28,14.19c-3.52,4.81-10.34-3.13-11.35-5.44
				c-1.02-2.31-2.66-16.82,7.91-16.82C156.69,305.37,157.89,310.07,157.54,313.45z"/>
			<path class="st45" d="M147.35,319.29c0,0,3.55-2.77,4.87-7.49c0,0,0.78-0.51,5.11,3.49c0,0,4.88-0.01,2.61-5.69
				s-11.65-12.85-16.17-7.17c0,0-8.6-1.58-6.93,10.69c2.19,16.17,9.06,13.5,10.78,9.81C149.31,319.29,147.35,319.29,147.35,319.29z"
				/>
			<path class="st10" d="M149.57,317.39c0,0-1.42-3.09-2.6-1.25c-1.17,1.84,0.24,5.57,2.81,6.05L149.57,317.39z"/>
			<path class="st10" d="M201.08,372.63c0.09-0.03,0.94,1.41,1.56,2.51c0.18,0.32-0.14,0.69-0.44,0.51l-1.77-1.08
				c0,0,0.12,3.22-4.04,0.36l-0.1-3.12L201.08,372.63z"/>
			<path class="st48" d="M197.17,371.7c0,0-25.93-16.23-27.64-6.74c-1.71,9.49,26.75,10.22,26.75,10.22S197.49,374.26,197.17,371.7z
				"/>
			<path class="st48" d="M160.11,338.72c0,0,3.89,2.15,9.31,10.65c7.35,11.54,10.73,18.42,3.9,20.97
				c-1.73,0.64-13.66-13.15-13.66-13.15S154.8,345.75,160.11,338.72z"/>
			<path class="st48" d="M151.05,332.87l-1.26-2.38c0,0-2.14-1.44-6.23-1.54l-1.49,1.4C142.07,330.35,142.38,331.98,151.05,332.87z"
				/>
		</g>
	</g>
	
		<linearGradient id="SVGID_36_" gradientUnits="userSpaceOnUse" x1="948.1889" y1="2773.7625" x2="948.1889" y2="2628.1084" gradientTransform="matrix(-0.999 -0.0439 0.0439 -0.999 1282.1508 2938.0674)">
		<stop  offset="1.860120e-03" style="stop-color:#8B4192"/>
		<stop  offset="1" style="stop-color:#2F2142"/>
	</linearGradient>
	<path class="st61" d="M431.55,158.93c5.13,15.35,24.23,35.03,39.92,27.66c7.76-3.65,11.99-15.63,6.8-22.96
		c-3.69-5.21-10.33-6.49-15.1-10.49c-4.27-3.57-6.77-9.06-10-13.77c-3.23-4.71-8.02-9.02-13.34-8.36
		c-11.16,1.37-11.18,18.34-8.56,27.03C431.35,158.33,431.44,158.63,431.55,158.93z"/>
</g>
</svg>
